<?xml version="1.0" encoding="utf-8"?>
<!-- Generator: Adobe Illustrator 18.0.0, SVG Export Plug-In . SVG Version: 6.00 Build 0)  -->
<!DOCTYPE svg PUBLIC "-//W3C//DTD SVG 1.1//EN" "http://www.w3.org/Graphics/SVG/1.1/DTD/svg11.dtd">
<svg version="1.1" id="Layer_1" xmlns="http://www.w3.org/2000/svg" xmlns:xlink="http://www.w3.org/1999/xlink" x="0px" y="0px"
	 viewBox="-716.9 -44.2 2457.9 1112.5" enable-background="new -716.9 -44.2 2457.9 1112.5" xml:space="preserve">
<g>
	<path d="M-22.1,511.5c0,133.5-100.9,163-165.7,163s-129.7,0-129.7,0v0l94.7-181.8v95.6c0,0,8.2,0,32.9,0
		c46.3,0,74.1-38.1,74.1-77.7c0-39.6-28.8-77.7-67.9-77.7c-2.9,0-5.5,0-8,0l42.2-80.9C-88.1,363.1-22.1,402.8-22.1,511.5z
		 M370,348.6h-95.3v326H370V348.6z M888,588.4h-70.3v-37h89.6l43.4-83.4h-133v-35h151.3v-84.5h-248v326c0,0,60.8,0,122.1,0
		L888,588.4z M-7.5,674.5h95.3V430.6c0,0,16.6,0,39.5,0s39.5,5.9,39.5,33.2c0,27.3-17.5,32.5-40.3,32.5c-22.7,0-38.8,0-38.8,0
		L180,674.5h94.6L208.8,557c0,0,54.9-19.9,54.9-93.9c0-83.3-50.4-114.6-113-114.6s-158.2,0-158.2,0V674.5z M502.8,479.9l-33-131.3
		H370l62.3,266.7L502.8,479.9z M618,348.6l-169.9,326h103l169.8-326L618,348.6z"/>
	<path fill="#43C393" d="M1241,674.5L1241,674.5l0-326h97.9v138L1241,674.5z M1105.9,546.8h-46.8l33.6-64.8l0,0.2l69.7-133.7h-102.7
		l-169.8,326H993l25.4-49.1h110.4l12.3,49.1h99.8l-62.4-267.1L1105.9,546.8z"/>
</g>
</svg>
